<svg xmlns="http://www.w3.org/2000/svg" width="22.338" height="20.743" viewBox="0 0 22.338 20.743">
  <path id="Icon_ionic-ios-star" data-name="Icon ionic-ios-star" d="M23.74,10.555H16.406L14.177,3.9a.808.808,0,0,0-1.516,0l-2.229,6.652H3.048a.8.8,0,0,0-.8.8.586.586,0,0,0,.015.135.767.767,0,0,0,.334.563L8.627,16.3,6.314,23.026a.8.8,0,0,0,.274.9.772.772,0,0,0,.449.194.977.977,0,0,0,.5-.18l5.884-4.193L19.3,23.938a.934.934,0,0,0,.5.18.716.716,0,0,0,.444-.194.79.79,0,0,0,.274-.9L18.206,16.3l5.978-4.288.145-.125a.836.836,0,0,0,.259-.534A.844.844,0,0,0,23.74,10.555Z" transform="translate(-2.25 -3.375)" fill="#585858"/>
</svg>
